<svg width="24" height="24" viewBox="0 0 24 24" fill="none" xmlns="http://www.w3.org/2000/svg">
<path d="M4.1 14H19.9C20.5934 14 20.9494 14.1499 21.1483 14.3614C21.3544 14.5804 21.5 14.9785 21.5 15.73V19.77C21.5 20.5215 21.3544 20.9196 21.1483 21.1386C20.9494 21.3501 20.5934 21.5 19.9 21.5H4.1C3.40657 21.5 3.05057 21.3501 2.85167 21.1386C2.64556 20.9196 2.5 20.5215 2.5 19.77V15.73C2.5 14.9785 2.64556 14.5804 2.85167 14.3614C3.05057 14.1499 3.40657 14 4.1 14Z" fill="white" stroke="white"/>
<path d="M4.1 2.5H19.9C20.5934 2.5 20.9494 2.64993 21.1483 2.86135C21.3544 3.08044 21.5 3.47854 21.5 4.23V8.27C21.5 9.02146 21.3544 9.41956 21.1483 9.63865C20.9494 9.85007 20.5934 10 19.9 10H4.1C3.40657 10 3.05057 9.85007 2.85167 9.63865C2.64556 9.41956 2.5 9.02146 2.5 8.27V4.23C2.5 3.47854 2.64556 3.08044 2.85167 2.86135C3.05057 2.64993 3.40657 2.5 4.1 2.5Z" fill="white" stroke="white"/>
</svg>
